<svg xmlns="http://www.w3.org/2000/svg" width="24" height="24" viewBox="0 0 24 24" fill="none" stroke="#fff" stroke-width="2" stroke-linecap="round" stroke-linejoin="round" class="lucide lucide-building2 lucide-building-2 w-4 h-4 mt-0.5 flex-shrink-0" aria-hidden="true"><path d="M6 22V4a2 2 0 0 1 2-2h8a2 2 0 0 1 2 2v18Z"></path><path d="M6 12H4a2 2 0 0 0-2 2v6a2 2 0 0 0 2 2h2"></path><path d="M18 9h2a2 2 0 0 1 2 2v9a2 2 0 0 1-2 2h-2"></path><path d="M10 6h4"></path><path d="M10 10h4"></path><path d="M10 14h4"></path><path d="M10 18h4"></path></svg>